<svg width="208" height="208" viewBox="0 0 208 208" fill="none" xmlns="http://www.w3.org/2000/svg">
<g opacity="0.1">
<path d="M128.762 104C128.762 117.676 117.676 128.762 104 128.762C90.3244 128.762 79.2381 117.676 79.2381 104C79.2381 90.3244 90.3244 79.2381 104 79.2381C117.676 79.2381 128.762 90.3244 128.762 104Z" fill="#E0E0E0"/>
<path fill-rule="evenodd" clip-rule="evenodd" d="M104 208C156.393 208 199.738 169.257 206.947 118.857H146.035C139.917 136.169 123.407 148.571 104 148.571C84.5933 148.571 68.0835 136.169 61.9648 118.857H1.05322C8.26235 169.257 51.6067 208 104 208ZM61.9648 89.1429H1.05322C8.26235 38.7431 51.6067 0 104 0C156.393 0 199.738 38.7431 206.947 89.1429H146.035C139.917 71.8314 123.407 59.4286 104 59.4286C84.5933 59.4286 68.0835 71.8314 61.9648 89.1429ZM128.762 104C128.762 117.676 117.676 128.762 104 128.762C90.3244 128.762 79.2381 117.676 79.2381 104C79.2381 90.3244 90.3244 79.2381 104 79.2381C117.676 79.2381 128.762 90.3244 128.762 104Z" fill="#E0E0E0"/>
<path d="M61.6157 119.357C67.8963 136.687 84.5006 149.071 104 149.071C123.5 149.071 140.104 136.687 146.384 119.357H206.367C198.948 169.235 155.943 207.5 104 207.5C52.0577 207.5 9.05234 169.236 1.6333 119.357H61.6157ZM104 79.7383C117.4 79.7385 128.262 90.6007 128.262 104C128.262 117.399 117.4 128.261 104 128.262C90.601 128.262 79.7378 117.399 79.7378 104C79.7378 90.6005 90.601 79.7383 104 79.7383ZM104 0.5C155.943 0.50023 198.948 38.7645 206.367 88.6426H146.384C140.104 71.3128 123.5 58.9289 104 58.9287C84.5006 58.9287 67.8963 71.3126 61.6157 88.6426H1.6333C9.05235 38.7644 52.0577 0.5 104 0.5Z" stroke="black" stroke-opacity="0.7"/>
</g>
</svg>
