<svg width="48" height="48" viewBox="0 0 48 48" fill="none" xmlns="http://www.w3.org/2000/svg">
<path d="M10.9872 39H37.2872L34.1372 17H14.1372L10.9872 39ZM24.1372 14C25.0039 14 25.7205 13.7083 26.2872 13.125C26.8539 12.5417 27.1372 11.8333 27.1372 11C27.1372 10.1333 26.8539 9.41667 26.2872 8.85C25.7205 8.28333 25.0039 8 24.1372 8C23.3039 8 22.5955 8.28333 22.0122 8.85C21.4289 9.41667 21.1372 10.1333 21.1372 11C21.1372 11.8333 21.4289 12.5417 22.0122 13.125C22.5955 13.7083 23.3039 14 24.1372 14ZM29.3372 14H34.1372C34.9039 14 35.5705 14.2417 36.1372 14.725C36.7039 15.2083 37.0372 15.8333 37.1372 16.6L40.2372 38.6C40.3705 39.5 40.1455 40.2917 39.5622 40.975C38.9789 41.6583 38.2205 42 37.2872 42H10.9872C10.0539 42 9.29554 41.6583 8.71221 40.975C8.12888 40.2917 7.90388 39.5 8.03721 38.6L11.1372 16.6C11.2372 15.8333 11.5705 15.2083 12.1372 14.725C12.7039 14.2417 13.3705 14 14.1372 14H18.9372C18.6705 13.5333 18.4705 13.0583 18.3372 12.575C18.2039 12.0917 18.1372 11.5667 18.1372 11C18.1372 9.33333 18.7205 7.91667 19.8872 6.75C21.0539 5.58333 22.4705 5 24.1372 5C25.8039 5 27.2205 5.58333 28.3872 6.75C29.5539 7.91667 30.1372 9.33333 30.1372 11C30.1372 11.5667 30.0705 12.0917 29.9372 12.575C29.8039 13.0583 29.6039 13.5333 29.3372 14ZM10.9872 39H37.2872H10.9872Z" fill="#1D1D1D"/>
</svg>
